<svg width="33" height="33" viewBox="0 0 33 33" fill="none" xmlns="http://www.w3.org/2000/svg">
<path d="M15.1621 26.5C15.9905 26.5 16.6621 25.8284 16.6621 25C16.6621 24.1716 15.9905 23.5 15.1621 23.5C14.3337 23.5 13.6621 24.1716 13.6621 25C13.6621 25.8284 14.3337 26.5 15.1621 26.5Z" fill="#101828"/>
<path d="M22.1621 26.5C22.9905 26.5 23.6621 25.8284 23.6621 25C23.6621 24.1716 22.9905 23.5 22.1621 23.5C21.3337 23.5 20.6621 24.1716 20.6621 25C20.6621 25.8284 21.3337 26.5 22.1621 26.5Z" fill="#101828"/>
<path d="M4.66211 8.5H9.21211L12.9246 20.2548H24.0371L28.6621 8.5" stroke="#101828" stroke-width="1.2" stroke-linecap="round" stroke-linejoin="round"/>
<rect x="13.1621" y="2.5" width="11.6364" height="11.6364" rx="5.81818" fill="#0F6711"/>
<path d="M18.9362 5.45679C19.1721 5.45851 19.4046 5.50156 19.6336 5.58592C19.8625 5.67029 20.0692 5.80803 20.2534 5.99914C20.4393 6.19026 20.5874 6.44852 20.6976 6.77394C20.8095 7.09763 20.8663 7.50052 20.8681 7.98262C20.8681 8.44577 20.8216 8.85813 20.7286 9.2197C20.6356 9.57955 20.5022 9.88344 20.3283 10.1314C20.1561 10.3793 19.9469 10.5678 19.7007 10.697C19.4545 10.8261 19.1773 10.8907 18.8691 10.8907C18.554 10.8907 18.2742 10.8287 18.0297 10.7047C17.7852 10.5808 17.5864 10.4094 17.4331 10.1908C17.2799 9.97039 17.1843 9.71729 17.1465 9.43148H17.9342C17.9858 9.65875 18.0909 9.84298 18.2493 9.98417C18.4094 10.1236 18.616 10.1934 18.8691 10.1934C19.2565 10.1934 19.5587 10.0246 19.7756 9.68716C19.9925 9.34797 20.1019 8.87449 20.1036 8.26671H20.0623C19.9727 8.41478 19.8608 8.54219 19.7265 8.64894C19.594 8.75569 19.445 8.83833 19.2797 8.89687C19.1144 8.95541 18.938 8.98468 18.7503 8.98468C18.4455 8.98468 18.1683 8.90979 17.9187 8.75999C17.669 8.6102 17.4702 8.40445 17.3221 8.14274C17.174 7.88103 17.1 7.58231 17.1 7.24656C17.1 6.91254 17.1757 6.60951 17.3273 6.33747C17.4805 6.06543 17.694 5.85021 17.9677 5.69181C18.2432 5.53169 18.5661 5.45335 18.9362 5.45679ZM18.9388 6.12828C18.7374 6.12828 18.5557 6.17821 18.3939 6.27807C18.2338 6.37621 18.1072 6.50965 18.0142 6.67838C17.9213 6.84539 17.8748 7.03134 17.8748 7.23623C17.8748 7.44112 17.9195 7.62707 18.0091 7.79408C18.1003 7.95937 18.2243 8.09109 18.381 8.18923C18.5394 8.28565 18.7202 8.33386 18.9233 8.33386C19.0748 8.33386 19.216 8.30459 19.3469 8.24605C19.4777 8.18751 19.5922 8.10658 19.6904 8.00328C19.7885 7.89825 19.8651 7.77945 19.9202 7.64687C19.9753 7.5143 20.0029 7.37483 20.0029 7.22848C20.0029 7.03392 19.9564 6.85314 19.8634 6.68613C19.7722 6.51912 19.6465 6.38482 19.4863 6.28324C19.3262 6.17993 19.1437 6.12828 18.9388 6.12828Z" fill="white"/>
</svg>
