<svg width="18" height="16" viewBox="0 0 18 16" fill="none" xmlns="http://www.w3.org/2000/svg">
<path fill-rule="evenodd" clip-rule="evenodd" d="M0.599609 1.9998C0.599609 1.33706 1.13687 0.799805 1.79961 0.799805H16.1996C16.8624 0.799805 17.3996 1.33706 17.3996 1.9998C17.3996 2.66255 16.8624 3.1998 16.1996 3.1998H1.79961C1.13687 3.1998 0.599609 2.66255 0.599609 1.9998Z" fill="#111826"/>
<path fill-rule="evenodd" clip-rule="evenodd" d="M0.599609 7.9998C0.599609 7.33706 1.13687 6.7998 1.79961 6.7998H16.1996C16.8624 6.7998 17.3996 7.33706 17.3996 7.9998C17.3996 8.66255 16.8624 9.19981 16.1996 9.19981H1.79961C1.13687 9.19981 0.599609 8.66255 0.599609 7.9998Z" fill="#111826"/>
<path fill-rule="evenodd" clip-rule="evenodd" d="M0.599609 13.9998C0.599609 13.3371 1.13687 12.7998 1.79961 12.7998H16.1996C16.8624 12.7998 17.3996 13.3371 17.3996 13.9998C17.3996 14.6625 16.8624 15.1998 16.1996 15.1998H1.79961C1.13687 15.1998 0.599609 14.6625 0.599609 13.9998Z" fill="#111826"/>
</svg>
