<svg width="45" height="33" viewBox="0 0 45 33" fill="none" xmlns="http://www.w3.org/2000/svg">
<path d="M24.0326 24.7838H32.3985L29.4837 21.3679V15.0372C29.484 13.4837 28.9525 11.977 27.9775 10.7675C27.0025 9.5581 25.6428 8.71889 24.1246 8.38951V7.73496C24.1246 7.34708 23.9706 6.97509 23.6963 6.70082C23.422 6.42655 23.05 6.27246 22.6621 6.27246C22.2743 6.27246 21.9023 6.42655 21.628 6.70082C21.3537 6.97509 21.1996 7.34708 21.1996 7.73496V8.38951C19.6815 8.71889 18.3218 9.5581 17.3468 10.7675C16.3718 11.977 15.8403 13.4837 15.8406 15.0372V21.3679L12.9258 24.7838H24.0326Z" stroke="#101828" stroke-width="0.872727" stroke-linecap="round" stroke-linejoin="round"/>
<path d="M24.1242 25.2644C24.1242 25.6523 23.9702 26.0242 23.6959 26.2985C23.4216 26.5728 23.0496 26.7269 22.6617 26.7269C22.2739 26.7269 21.9019 26.5728 21.6276 26.2985C21.3533 26.0242 21.1992 25.6523 21.1992 25.2644C21.1982 25.0997 21.2294 24.9363 21.2913 24.7837H24.0322C24.0941 24.9363 24.1253 25.0997 24.1242 25.2644Z" fill="#101828"/>
</svg>
