<?xml version="1.0" encoding="UTF-8"?>
<svg id="Layer_2" data-name="Layer 2" xmlns="http://www.w3.org/2000/svg" viewBox="0 0 136.31 124.18">
  <defs>
    <style>
      .cls-1 {
        fill: #000;
      }

      .cls-1, .cls-2 {
        stroke-width: 0px;
      }

      .cls-2 {
        fill: #0f6711;
      }
    </style>
  </defs>
  <g id="Graphic_Elements" data-name="Graphic Elements">
    <path class="cls-2" d="M130.46,41.72c-6.98,11.12-15.93,16.03-22.21,18.19-5.89,2.02-10.81,2.16-12.84,1.98,1.69-6.33,5.86-14.52,12.52-23.81,3.26-4.56,7.45-10.87,6.64-11.59-.93-.82-7.27,5.87-9.83,8.95-6.88,8.28-10.61,16.4-12.64,22.85-.97-1.39-2.02-3.11-2.94-5.1-3.35-7.23-3.49-14.41-.4-21.34,4.08-9.15,12.79-14.5,22.02-20.17,5.16-3.17,10.43-6.41,15.15-10.44,2.92-2.5,7.45-1.01,8.36,2.72,2.51,10.19,3.99,25.27-3.84,37.76Z"/>
    <path class="cls-1" d="M38.44,124.17c9.55-21.14,18.63-41.24,28.11-62.22-13.71,0-26.3-.23-38.88.12-4.61.13-7.09-1.42-9.23-5.4C12.72,46.04,6.57,35.65,0,24.11c27.14-.31,53.87-4.24,74.99,17.45,17.73,18.21,22.63,43.6,12.64,67.15q-6.56,15.45-23.2,15.46c-8.31,0-16.63,0-25.99,0Z"/>
  </g>
</svg>