<svg width="159" height="29" viewBox="0 0 159 29" fill="none" xmlns="http://www.w3.org/2000/svg">
<g clip-path="url(#clip0_637_21756)">
<path d="M21.1176 12.3233C24.9515 9.28175 32.7813 -1.67847 20.5236 0.261856C15.1778 1.04847 7.34796 6.08283 5.782 11.9038C4.97202 10.3306 4.05405 8.86222 3.08207 7.39386C1.57011 5.4011 -0.103848 6.97433 1.51611 8.9671C6.31823 14.6135 9.08692 21.6302 9.39991 28.9472C9.7779 25.4336 9.18392 21.1335 7.72595 16.9382C8.42794 17.1479 9.23792 17.2528 9.9399 17.2528C12.4238 21.2383 16.2577 24.647 20.5236 26.2203C24.4655 27.7411 29.7034 26.8496 27.5435 20.7139C26.4095 17.3577 23.7635 14.421 21.1176 12.3233ZM21.6576 1.67777C28.4614 0.943592 21.1716 9.17686 18.7957 10.6977C16.5817 9.28175 13.7738 8.02316 11.0739 8.39025C13.0178 5.92551 17.7697 2.14974 21.6576 1.67777ZM11.0199 10.1732C12.8558 10.0159 14.8538 11.0123 16.4197 12.0611C14.9078 12.7953 13.2878 13.2148 11.6139 13.3722C9.12992 13.3722 8.58993 10.383 11.0199 10.1732ZM20.4156 22.9689C17.2297 22.0774 14.2058 19.5602 12.0458 17.043C13.8278 16.676 15.6098 15.9942 17.2297 15.0503C17.8237 14.7881 18.4177 14.3685 18.9577 14.0015C20.8476 15.6796 22.8456 17.9345 23.6016 20.5042C24.3575 23.2836 22.3056 23.4933 20.4156 22.9689Z" fill="#F2F4F7"/>
<path d="M47.1975 5.40117H37.9097C37.5857 5.40117 37.3157 5.66338 37.3157 5.97802H37.2617V20.1372C37.2617 20.4518 37.5317 20.714 37.8557 20.714C38.1257 20.714 38.3957 20.4518 38.4497 20.1372V13.7393H46.3335C46.6575 13.7393 46.8195 13.4771 46.8195 13.2149C46.8195 12.9003 46.6035 12.7429 46.3335 12.7429H38.3957V6.50244H47.1975C47.5215 6.50244 47.6835 6.24023 47.6835 5.97802C47.6835 5.8207 47.5215 5.61093 47.1975 5.40117ZM51.4634 4.66699H51.4094C51.1394 4.66699 50.9774 4.87676 50.9774 5.13896V20.0847C50.9774 20.3994 51.1934 20.6091 51.4634 20.6091C51.7874 20.6091 51.9493 20.3469 51.9493 20.0847V5.24385C51.9493 4.87676 51.7874 4.66699 51.4634 4.66699ZM64.909 10.016C64.909 9.70135 64.693 9.49159 64.423 9.49159C64.099 9.49159 63.937 9.75379 63.937 10.016V16.2565C63.937 18.3542 62.2631 20.0323 60.2111 19.9798C58.0512 19.9798 56.8092 18.5115 56.8092 16.2041V10.016C56.8092 9.70135 56.5932 9.49159 56.3232 9.49159C56.1072 9.49159 55.8372 9.75379 55.8372 10.016V16.3614C55.8372 18.9834 57.4572 20.9238 60.1031 20.9238C61.7231 20.9762 63.2351 20.0847 63.991 18.6164V20.242C63.991 20.5567 64.261 20.714 64.477 20.714C64.801 20.714 64.963 20.4518 64.963 20.242H64.909V10.016ZM73.8188 10.5404C74.0348 10.5404 74.3048 10.3306 74.3048 10.0684C74.3048 9.85867 74.0348 9.59647 73.8188 9.59647H70.4169V6.50244C70.4169 6.24023 70.1469 5.97802 69.9309 5.97802H69.8769C69.6069 5.97802 69.4449 6.24023 69.4449 6.50244V9.59647H68.2569C67.9869 9.59647 67.7709 9.75379 67.7709 10.016C67.7709 10.2782 67.9869 10.5404 68.2569 10.5404H69.4449V17.7773C69.4449 19.8225 70.7949 20.8189 72.3608 20.8189C72.9008 20.8189 73.4408 20.714 73.9268 20.5567C74.0888 20.4518 74.2508 20.2945 74.2508 20.0847C74.2508 19.8225 74.0348 19.6652 73.8188 19.6652C73.4408 19.7701 73.0088 19.8225 72.5768 19.8225C71.2809 19.8225 70.4169 19.2457 70.4169 17.6724V10.5404H73.8188ZM82.1886 10.5404C82.4586 10.5404 82.6746 10.3306 82.6746 10.0684C82.6746 9.85867 82.4586 9.59647 82.1886 9.59647H78.7867V6.50244C78.7867 6.24023 78.5707 5.97802 78.3007 5.97802H78.2467C77.9767 5.97802 77.8147 6.24023 77.8147 6.50244V9.59647H76.6267C76.4107 9.59647 76.1407 9.75379 76.1407 10.016C76.1407 10.2782 76.4107 10.5404 76.6267 10.5404H77.8147V17.7773C77.8147 19.8225 79.1647 20.8189 80.7846 20.8189C81.2706 20.8189 81.8106 20.714 82.2966 20.5567C82.5126 20.4518 82.6206 20.2945 82.6206 20.0847C82.6206 19.8225 82.4586 19.6652 82.1886 19.6652C81.8106 19.7701 81.3786 19.8225 80.9466 19.8225C79.6506 19.8225 78.7867 19.2457 78.7867 17.6724V10.5404H82.1886ZM89.5864 9.28182C86.7245 9.28182 84.5645 11.799 84.5645 15.1028V15.1552C84.5645 18.6688 86.9405 20.9762 89.8024 20.9762C91.3144 21.0287 92.8803 20.3994 93.9063 19.1932C94.0683 19.0883 94.1223 18.931 94.1223 18.8261C94.1223 18.5639 93.8523 18.3017 93.6363 18.3017L93.3123 18.4066C92.8839 18.8916 92.3543 19.2827 91.7585 19.554C91.1627 19.8252 90.5143 19.9703 89.8564 19.9798C87.7504 19.9798 85.8605 18.3542 85.6445 15.6272H94.0683C94.2843 15.6272 94.5543 15.365 94.5543 15.1028C94.5543 11.799 92.6103 9.28182 89.5864 9.28182ZM85.5905 14.5784C85.7525 12.1661 87.4264 10.2782 89.5324 10.2782C91.9623 10.2782 93.2583 12.3234 93.3663 14.5784H85.5905ZM102.816 9.43914C100.872 9.59647 99.2522 10.9075 98.5502 12.7954V10.0684C98.5502 9.85867 98.2802 9.59647 98.0642 9.59647C97.7402 9.59647 97.5782 9.75379 97.5242 10.0684V20.3469C97.5242 20.6091 97.7402 20.8713 98.0102 20.8713C98.2802 20.8713 98.4962 20.6616 98.5502 20.3469V16.2565C98.5502 12.6381 100.548 10.9075 102.816 10.6453H102.87C103.194 10.6453 103.356 10.3306 103.356 10.0684C103.356 9.70135 103.14 9.43914 102.816 9.43914Z" fill="#F2F4F7"/>
<path d="M121.013 8.86202C120.311 8.86202 119.663 9.38643 119.501 10.1206L117.666 16.0989L115.884 10.1206C115.722 9.38643 115.02 8.80958 114.21 8.80958H114.048C113.238 8.80958 112.536 9.28155 112.374 10.1206L110.592 15.994L108.864 10.0682C108.648 9.38643 108.054 8.80958 107.298 8.80958H107.244C106.434 8.80958 105.84 9.49131 105.84 10.3304L105.948 11.117L108.702 19.3503C108.918 20.1893 109.62 20.7662 110.484 20.8186H110.592C111.402 20.8186 112.05 20.2418 112.32 19.4027L114.102 13.5293L115.884 19.4027C116.1 20.2418 116.802 20.8186 117.612 20.8186H117.774C118.638 20.8186 119.34 20.2418 119.555 19.3503L122.309 11.0121L122.471 10.3828V10.3304C122.471 9.49131 121.823 8.86202 121.013 8.86202ZM128.951 8.86202C127.709 8.80958 126.521 9.07178 125.333 9.43887C124.847 9.64864 124.577 10.1206 124.577 10.6975C124.577 11.4841 125.171 12.0609 125.927 12.0085C126.035 12.0085 126.197 12.0085 126.359 11.9036C127.061 11.6938 127.817 11.589 128.573 11.589C130.193 11.589 131.003 12.3231 131.003 13.7391V13.8964C130.139 13.5817 129.167 13.4768 128.249 13.4768C125.603 13.4768 123.767 14.683 123.767 17.2526C123.767 19.5076 125.549 20.8186 127.601 20.8186C128.897 20.8711 130.139 20.2942 131.003 19.3503C131.057 20.1893 131.705 20.7662 132.515 20.7662C133.379 20.7662 134.081 20.032 134.081 19.1405V13.8964C134.135 12.5853 133.703 11.2219 132.839 10.2255C131.921 9.38643 130.679 8.86202 128.951 8.86202ZM131.057 16.466C131.057 17.7246 129.977 18.5112 128.519 18.4588C127.493 18.4588 126.791 17.9344 126.791 17.0429V16.9904C126.791 15.994 127.655 15.3647 129.005 15.3647C129.653 15.3647 130.409 15.5745 131.057 15.8367V16.466ZM145.043 8.80958C144.395 8.80958 143.747 9.22911 143.585 9.96328L141.101 16.7282L138.725 10.0157C138.509 9.28155 137.915 8.80958 137.159 8.80958C136.349 8.80958 135.701 9.43887 135.593 10.3304C135.593 10.5926 135.701 10.8548 135.809 11.117L139.265 19.3503C139.481 20.1893 140.183 20.7662 141.047 20.8186H141.263C142.019 20.7662 142.775 20.2418 143.099 19.4027L146.447 11.1694L146.609 10.3828V10.3304C146.609 9.49131 145.961 8.80958 145.043 8.80958ZM153.413 8.75714C150.119 8.75714 147.851 11.4841 147.851 14.7879V15.3123C147.959 18.5112 150.659 20.9759 153.737 20.8186C155.141 20.8186 156.491 20.3466 157.625 19.4027C157.949 19.1405 158.057 18.8259 158.057 18.4588V18.4063C158.057 17.6721 157.517 17.0953 156.815 17.0953C156.545 17.0953 156.275 17.1477 156.059 17.3575C155.429 17.8838 154.621 18.1642 153.791 18.1441C152.441 18.1966 151.253 17.2526 151.091 15.8367H157.409C158.219 15.7843 158.866 15.0501 158.812 14.211V13.9488C158.812 11.117 156.383 8.65225 153.413 8.75714ZM150.983 13.8964C151.253 12.3756 152.117 11.4316 153.413 11.4316C154.709 11.4316 155.573 12.428 155.735 13.8964H150.983Z" fill="#F2F4F7" stroke="#F2F4F7"/>
</g>
<defs>
<clipPath id="clip0_637_21756">
<rect width="158" height="29" fill="white" transform="translate(0.867188)"/>
</clipPath>
</defs>
</svg>
