<svg width="54" height="37" viewBox="0 0 54 37" fill="none" xmlns="http://www.w3.org/2000/svg">
<g clip-path="url(#clip0_637_21778)">
<g clip-path="url(#clip1_637_21778)">
<path d="M40.3168 29.2015V29.2581H40.369C40.3788 29.2582 40.3885 29.2557 40.397 29.2509C40.4004 29.2484 40.4031 29.2452 40.405 29.2414C40.4068 29.2376 40.4077 29.2334 40.4075 29.2292C40.4077 29.2251 40.4068 29.221 40.405 29.2173C40.4031 29.2136 40.4004 29.2105 40.397 29.2082C40.3886 29.203 40.3788 29.2005 40.369 29.2009H40.3168V29.2015ZM40.3696 29.1615C40.3919 29.1601 40.4141 29.1666 40.4323 29.1799C40.4396 29.1859 40.4453 29.1936 40.4492 29.2023C40.453 29.211 40.4547 29.2204 40.4543 29.2299C40.4546 29.2381 40.4532 29.2463 40.4501 29.2538C40.4471 29.2614 40.4425 29.2683 40.4366 29.2739C40.4226 29.2862 40.405 29.2936 40.3865 29.295L40.4565 29.3756H40.4026L40.3382 29.2955H40.3173V29.3756H40.2723V29.1616H40.3703L40.3696 29.1615ZM40.3556 29.4494C40.3792 29.4496 40.4026 29.4448 40.4243 29.4352C40.4452 29.4261 40.4642 29.4131 40.4803 29.3969C40.4964 29.3807 40.5093 29.3615 40.5182 29.3404C40.5366 29.2955 40.5366 29.2452 40.5182 29.2004C40.5092 29.1793 40.4963 29.1601 40.4803 29.1438C40.4642 29.1276 40.4452 29.1146 40.4243 29.1055C40.4025 29.0965 40.3791 29.092 40.3556 29.0922C40.3316 29.092 40.3078 29.0965 40.2856 29.1055C40.2642 29.1144 40.2448 29.1274 40.2283 29.1438C40.2035 29.1695 40.1868 29.2019 40.1801 29.2371C40.1735 29.2723 40.1772 29.3087 40.1909 29.3418C40.1994 29.363 40.2122 29.3822 40.2283 29.3983C40.2448 29.4147 40.2642 29.4277 40.2856 29.4366C40.3077 29.4462 40.3315 29.451 40.3556 29.4508V29.4494ZM40.3556 29.0407C40.4171 29.0407 40.4762 29.0651 40.5201 29.1086C40.5412 29.1295 40.5581 29.1545 40.5696 29.182C40.5816 29.2103 40.5878 29.2407 40.5878 29.2714C40.5878 29.3022 40.5816 29.3326 40.5696 29.3609C40.5578 29.3882 40.541 29.4131 40.5201 29.4342C40.4986 29.455 40.4736 29.4718 40.4463 29.4837C40.4176 29.496 40.3867 29.5023 40.3556 29.5021C40.324 29.5023 40.2928 29.4961 40.2637 29.4837C40.2361 29.4721 40.2109 29.4553 40.1894 29.4342C40.1685 29.4123 40.1519 29.3866 40.1405 29.3584C40.1286 29.3302 40.1224 29.2998 40.1224 29.269C40.1224 29.2383 40.1286 29.2079 40.1405 29.1796C40.1521 29.1521 40.1689 29.1271 40.1901 29.1062C40.2113 29.0848 40.2366 29.068 40.2644 29.0567C40.2935 29.0444 40.3247 29.0381 40.3563 29.0383L40.3556 29.0407ZM18.9188 28.2146C18.9188 27.8067 19.1834 27.4716 19.6158 27.4716C20.0291 27.4716 20.308 27.7923 20.308 28.2146C20.308 28.6369 20.0291 28.9576 19.6158 28.9576C19.1834 28.9576 18.9188 28.6225 18.9188 28.2146ZM20.7791 28.2146V27.0538H20.2794V27.3366C20.1209 27.1276 19.8806 26.9966 19.5537 26.9966C18.9097 26.9966 18.4043 27.5067 18.4043 28.2152C18.4043 28.9237 18.9094 29.4338 19.5537 29.4338C19.8804 29.4338 20.1209 29.3026 20.2794 29.0938V29.3756H20.7785V28.2146H20.7791ZM37.662 28.2146C37.662 27.8067 37.9266 27.4716 38.3592 27.4716C38.7729 27.4716 39.0513 27.7923 39.0513 28.2146C39.0513 28.6369 38.7729 28.9576 38.3592 28.9576C37.9267 28.9576 37.662 28.6225 37.662 28.2146ZM39.5228 28.2146V26.1221H39.0228V27.3366C38.8643 27.1276 38.6239 26.9966 38.297 26.9966C37.653 26.9966 37.1476 27.5067 37.1476 28.2152C37.1476 28.9237 37.6527 29.4338 38.297 29.4338C38.6239 29.4338 38.8643 29.3026 39.0228 29.0938V29.3756H39.5228V28.2146ZM26.9805 27.4477C27.3025 27.4477 27.5093 27.6516 27.5621 28.0106H26.3698C26.4232 27.6755 26.6246 27.4477 26.9807 27.4477H26.9805ZM26.9906 26.9953C26.3172 26.9953 25.8461 27.4901 25.8461 28.2139C25.8461 28.9518 26.3361 29.4325 27.0241 29.4325C27.3701 29.4325 27.6871 29.3453 27.966 29.1073L27.7211 28.7334C27.5285 28.8889 27.2832 28.9761 27.0526 28.9761C26.7306 28.9761 26.4375 28.8256 26.3654 28.4078H28.0715C28.0764 28.345 28.0815 28.2816 28.0815 28.2138C28.0764 27.4903 27.6335 26.9951 26.9903 26.9951L26.9906 26.9953ZM33.0229 28.2138C33.0229 27.8059 33.2875 27.4708 33.72 27.4708C34.1333 27.4708 34.4121 27.7914 34.4121 28.2138C34.4121 28.6361 34.1333 28.9568 33.72 28.9568C33.2875 28.9568 33.0228 28.6217 33.0228 28.2138H33.0229ZM34.8831 28.2138V27.0538H34.3837V27.3366C34.2247 27.1276 33.9849 26.9966 33.658 26.9966C33.014 26.9966 32.5086 27.5067 32.5086 28.2152C32.5086 28.9237 33.0137 29.4338 33.658 29.4338C33.9849 29.4338 34.2247 29.3026 34.3837 29.0938V29.3756H34.8832V28.2146L34.8831 28.2138ZM30.2012 28.2138C30.2012 28.9177 30.6865 29.4324 31.4271 29.4324C31.7731 29.4324 32.0037 29.3546 32.2531 29.1557L32.0131 28.7478C31.8255 28.884 31.6285 28.9568 31.4111 28.9568C31.0122 28.9518 30.7189 28.6606 30.7189 28.2138C30.7189 27.767 31.0122 27.4759 31.4111 27.4708C31.628 27.4708 31.8249 27.5436 32.0131 27.6797L32.2531 27.2718C32.0033 27.0729 31.7727 26.9951 31.4271 26.9951C30.6865 26.9951 30.2012 27.5097 30.2012 28.2138ZM36.6426 26.9951C36.3544 26.9951 36.1666 27.1313 36.0368 27.3352V27.0538H35.5417V29.3743H36.0419V28.0735C36.0419 27.6895 36.2053 27.4761 36.5319 27.4761C36.6388 27.4746 36.745 27.4944 36.8444 27.5345L36.9984 27.0589C36.8878 27.0149 36.7436 26.9956 36.6423 26.9956L36.6426 26.9951ZM23.2494 27.2383C23.009 27.0783 22.6778 26.9956 22.3124 26.9956C21.7302 26.9956 21.3555 27.2774 21.3555 27.7384C21.3555 28.1168 21.6345 28.3502 22.1483 28.423L22.3843 28.457C22.6583 28.4958 22.7877 28.5687 22.7877 28.6997C22.7877 28.8791 22.6057 28.9815 22.2639 28.9815C21.9178 28.9815 21.6681 28.8698 21.4997 28.7387L21.2649 29.1322C21.5389 29.3361 21.8849 29.4334 22.2597 29.4334C22.9233 29.4334 23.3079 29.1178 23.3079 28.676C23.3079 28.2681 23.0052 28.0547 22.5051 27.9819L22.2697 27.9474C22.0534 27.9191 21.88 27.8751 21.88 27.7196C21.88 27.55 22.0434 27.4479 22.3175 27.4479C22.6108 27.4479 22.8948 27.5596 23.0339 27.6468L23.2502 27.2389L23.2494 27.2383ZM29.6965 26.996C29.4083 26.996 29.2205 27.1321 29.0913 27.336V27.0538H28.5961V29.3743H29.0958V28.0735C29.0958 27.6895 29.2592 27.4761 29.5858 27.4761C29.6927 27.4746 29.7989 27.4944 29.8983 27.5345L30.0523 27.0589C29.9417 27.0149 29.7975 26.9956 29.6962 26.9956L29.6965 26.996ZM25.4327 27.0538H24.6156V26.3498H24.1105V27.0538H23.6445V27.515H24.1105V28.5736C24.1105 29.112 24.3174 29.4327 24.9085 29.4327C25.1254 29.4327 25.3751 29.3648 25.5336 29.2533L25.3893 28.8212C25.2402 28.9084 25.0768 28.9524 24.9469 28.9524C24.6971 28.9524 24.6156 28.7969 24.6156 28.564V27.5155H25.4327V27.0538ZM17.9624 29.3749V27.9186C17.9624 27.3701 17.6163 27.0011 17.0584 26.9961C16.7651 26.9912 16.4626 27.0834 16.2508 27.409C16.0923 27.1517 15.8425 26.9961 15.4914 26.9961C15.246 26.9961 15.0062 27.0689 14.8184 27.3407V27.0538H14.3184V29.3743H14.8224V28.0877C14.8224 27.6848 15.0436 27.4708 15.3852 27.4708C15.717 27.4708 15.8848 27.6892 15.8848 28.0826V29.374H16.3899V28.0874C16.3899 27.6846 16.6205 27.4705 16.9522 27.4705C17.2934 27.4705 17.4562 27.6889 17.4562 28.0823V29.3737L17.9624 29.3749Z" fill="white"/>
<path d="M40.6004 21.6557V21.3164H40.5129L40.4116 21.5493L40.311 21.3164H40.2232V21.6557H40.2854V21.4001L40.38 21.6207H40.4444L40.539 21.3995V21.6557H40.6006H40.6004ZM40.0453 21.6557V21.3745H40.1573V21.3173H39.8711V21.3745H39.9831V21.6557H40.0447H40.0453Z" fill="#F79410"/>
<path d="M30.6541 23.1111H23.082V9.36816H30.6542L30.6541 23.1111Z" fill="#FF5F00"/>
<path d="M23.5632 16.2392C23.5632 13.4515 24.8557 10.9681 26.8683 9.36776C25.3448 8.15457 23.4605 7.49614 21.5204 7.49903C16.7413 7.49903 12.8672 11.4121 12.8672 16.2392C12.8672 21.0664 16.7413 24.9794 21.5204 24.9794C23.4606 24.9823 25.3449 24.3239 26.8684 23.1107C24.8559 21.5106 23.5632 19.0271 23.5632 16.2392Z" fill="#EB001B"/>
<path d="M40.8711 16.2402C40.8711 21.0673 36.997 24.9804 32.2178 24.9804C30.2775 24.9833 28.3929 24.3248 26.8691 23.1117C28.8823 21.5113 30.1748 19.0281 30.1748 16.2402C30.1748 13.4523 28.8823 10.9691 26.8691 9.36874C28.3929 8.15559 30.2774 7.49717 32.2177 7.50001C36.9969 7.50001 40.871 11.4131 40.871 16.2402" fill="#F79E1B"/>
</g>
</g>
<defs>
<clipPath id="clip0_637_21778">
<rect x="0.867188" y="0.5" width="53" height="36" rx="1" fill="white"/>
</clipPath>
<clipPath id="clip1_637_21778">
<rect width="28" height="22" fill="white" transform="translate(12.8672 7.5)"/>
</clipPath>
</defs>
</svg>
