<svg width="147" height="27" viewBox="0 0 147 27" fill="none" xmlns="http://www.w3.org/2000/svg">
<path d="M21.371 2.9541H1.76425C1.10581 2.9541 0.544922 3.51499 0.544922 4.19781V6.41698C0.544922 7.09981 1.10581 7.6607 1.76425 7.6607H21.371C22.0538 7.6607 22.5903 7.09981 22.6147 6.41698V4.2222C22.6147 3.51499 22.0538 2.9541 21.371 2.9541ZM21.371 15.2693H1.76425C1.44722 15.2693 1.1302 15.3912 0.910719 15.6351C0.666854 15.879 0.544922 16.1716 0.544922 16.513V18.7322C0.544922 19.415 1.10581 19.9759 1.76425 19.9759H21.371C22.0538 19.9759 22.5903 19.4394 22.6147 18.7322V16.513C22.5903 15.8058 22.0538 15.2693 21.371 15.2693ZM12.8113 21.4147H1.76425C1.44722 21.4147 1.1302 21.5366 0.910719 21.7805C0.691241 22.0243 0.544922 22.317 0.544922 22.6584V24.8776C0.544922 25.5604 1.10581 26.1213 1.76425 26.1213H12.7869C13.4698 26.1213 14.0063 25.5604 14.0063 24.902V22.6828C14.0307 21.9512 13.4942 21.3903 12.8113 21.4147ZM22.6147 9.0995H1.76425C1.44722 9.0995 1.1302 9.22143 0.910719 9.4653C0.691241 9.70916 0.544922 10.0018 0.544922 10.3432V12.5624C0.544922 13.2452 1.10581 13.8061 1.76425 13.8061H22.5903C23.2731 13.8061 23.8096 13.2452 23.8096 12.5624V10.3432C23.834 9.66039 23.2731 9.12389 22.6147 9.0995Z" fill="white"/>
<path d="M45.4161 7.92809C44.8065 7.29404 44.0993 6.80631 43.2945 6.4649C42.4897 6.12349 41.6362 5.95278 40.7583 5.95278C39.9048 5.9284 39.0756 6.12349 38.2953 6.48929C37.7832 6.73315 37.3198 7.07456 36.9296 7.48913V7.09895C36.9296 6.90386 36.8565 6.70877 36.7345 6.56245C36.6126 6.41613 36.4175 6.31858 36.198 6.31858H33.4911C33.296 6.31858 33.1009 6.39174 32.979 6.56245C32.8327 6.70877 32.7595 6.90386 32.7839 7.09895V25.3401C32.7839 25.5351 32.8571 25.7302 32.979 25.8766C33.1253 26.0229 33.296 26.096 33.4911 26.096H36.2712C36.4663 26.096 36.637 26.0229 36.7833 25.8766C36.9296 25.7546 37.0272 25.5595 37.0028 25.3401V19.0971C37.393 19.5361 37.9051 19.8531 38.466 20.0482C39.1976 20.3164 39.9535 20.4628 40.7339 20.4628C41.6118 20.4628 42.4897 20.292 43.2945 19.9506C44.0993 19.6092 44.8309 19.1215 45.4405 18.4874C46.0746 17.829 46.5623 17.0486 46.9037 16.1951C47.2939 15.244 47.4646 14.2198 47.4402 13.1956C47.4646 12.1713 47.2695 11.1471 46.9037 10.1716C46.5379 9.36689 46.0502 8.58653 45.4161 7.92809ZM42.9287 14.5368C42.7824 14.927 42.5629 15.2684 42.2703 15.5855C41.7094 16.1951 40.9046 16.5365 40.0755 16.5365C39.6609 16.5365 39.2463 16.4634 38.8562 16.2683C38.4904 16.0976 38.1489 15.8781 37.8563 15.5855C37.5637 15.2928 37.3442 14.927 37.1979 14.5368C36.8809 13.7077 36.8809 12.8054 37.1979 11.9763C37.3442 11.5861 37.5881 11.2447 37.8563 10.952C38.1489 10.6594 38.4904 10.4155 38.8562 10.2448C39.2463 10.0741 39.6609 9.97656 40.0755 9.97656C40.5144 9.97656 40.9046 10.0497 41.3192 10.2448C41.685 10.4155 42.0264 10.635 42.2947 10.9276C42.5873 11.2203 42.7824 11.5617 42.9531 11.9519C43.2457 12.8054 43.2213 13.7077 42.9287 14.5368ZM62.3404 6.34297H59.5847C59.3896 6.34297 59.1945 6.41613 59.0726 6.56245C58.9263 6.70877 58.8531 6.90386 58.8531 7.12334V7.46475C58.5117 7.05018 58.0727 6.73315 57.6094 6.51367C56.8534 6.14788 56.0243 5.97717 55.1951 5.97717C53.4149 5.97717 51.7322 6.68438 50.4641 7.92809C49.8057 8.58653 49.2936 9.36689 48.9522 10.2204C48.562 11.1715 48.3669 12.1957 48.3913 13.2443C48.3669 14.2686 48.562 15.2928 48.9522 16.2683C49.318 17.1218 49.8057 17.9022 50.4641 18.5606C51.7078 19.8287 53.4149 20.5359 55.1707 20.5359C55.9999 20.5603 56.829 20.3652 57.585 19.9994C58.0483 19.7555 58.5117 19.4385 58.8531 19.0483V19.4141C58.8531 19.6092 58.9263 19.8043 59.0726 19.9506C59.2189 20.0726 59.3896 20.1701 59.5847 20.1701H62.3404C62.5355 20.1701 62.7305 20.097 62.8525 19.9506C62.9988 19.8043 63.072 19.6092 63.072 19.4141V7.14772C63.072 6.95263 62.9988 6.75754 62.8769 6.61122C62.7305 6.44051 62.5355 6.34297 62.3404 6.34297ZM58.6092 14.5368C58.4629 14.927 58.2434 15.2684 57.9508 15.5855C57.6581 15.8781 57.3411 16.122 56.9753 16.2927C56.195 16.6585 55.2927 16.6585 54.5123 16.2927C54.1465 16.122 53.8051 15.8781 53.5124 15.5855C53.2198 15.2928 53.0003 14.927 52.854 14.5368C52.5614 13.7077 52.5614 12.8054 52.854 11.9763C53.0003 11.5861 53.2198 11.269 53.5124 10.952C53.8051 10.6594 54.1221 10.4155 54.5123 10.2448C55.2927 9.87901 56.195 9.87901 56.9509 10.2448C57.3167 10.4155 57.6582 10.635 57.9264 10.9276C58.1947 11.2203 58.4141 11.5617 58.5848 11.9519C58.9263 12.8054 58.9263 13.7077 58.6092 14.5368ZM89.7996 12.8785C89.4094 12.5371 88.946 12.2445 88.4583 12.0494C87.9462 11.8299 87.3853 11.6836 86.8488 11.5617L84.7516 11.1471C84.2151 11.0496 83.8249 10.9032 83.6298 10.7325C83.4591 10.6106 83.3371 10.4155 83.3371 10.196C83.3371 9.97655 83.4591 9.78146 83.7273 9.61076C84.0931 9.41567 84.4833 9.31812 84.8979 9.34251C85.4344 9.34251 85.9709 9.46444 86.4586 9.65953C86.9463 9.87901 87.4097 10.0985 87.8486 10.3911C88.4583 10.7813 88.9948 10.7082 89.3606 10.2692L90.3605 9.12303C90.5555 8.92794 90.6531 8.68407 90.6775 8.41582C90.6531 8.12318 90.5068 7.87932 90.2873 7.68423C89.8727 7.31843 89.1899 6.92824 88.2876 6.53806C87.3853 6.14787 86.2391 5.95278 84.8979 5.95278C84.0687 5.9284 83.264 6.05033 82.4836 6.29419C81.8252 6.51367 81.1911 6.8307 80.6302 7.24527C80.1181 7.63545 79.7279 8.12318 79.4353 8.70846C79.167 9.26935 79.0207 9.87901 79.0207 10.4887C79.0207 11.6348 79.3621 12.5615 80.045 13.2443C80.7278 13.9272 81.6301 14.3905 82.7519 14.61L84.9466 15.0977C85.41 15.1709 85.8977 15.3172 86.3367 15.5367C86.5805 15.6342 86.7269 15.8781 86.7269 16.1463C86.7269 16.3902 86.6049 16.6097 86.3367 16.8048C86.0684 16.9999 85.6295 17.1218 85.0442 17.1218C84.4589 17.1218 83.8493 16.9999 83.3128 16.7316C82.8006 16.4878 82.3373 16.1707 81.8983 15.8049C81.7032 15.6586 81.5082 15.5367 81.2643 15.4391C81.0204 15.366 80.7034 15.4391 80.3864 15.7074L79.1914 16.6097C78.85 16.8536 78.6793 17.2681 78.7769 17.6583C78.85 18.0729 79.167 18.4631 79.7767 18.9264C81.2887 19.9506 83.0933 20.4871 84.9223 20.4384C85.7758 20.4384 86.6293 20.3408 87.4341 20.097C88.1413 19.8775 88.7997 19.5605 89.385 19.1215C89.9215 18.7313 90.3605 18.2192 90.6531 17.6095C90.9457 17.0243 91.092 16.3902 91.092 15.7318C91.1164 15.1465 90.9945 14.5612 90.7506 14.0247C90.5068 13.6345 90.1897 13.22 89.7996 12.8785ZM101.846 16.2195C101.725 16 101.505 15.8537 101.237 15.8049C100.993 15.8049 100.725 15.8781 100.53 16.0244C100.188 16.2439 99.798 16.3658 99.4078 16.3902C99.2859 16.3902 99.1396 16.3658 99.0177 16.3414C98.8713 16.317 98.7494 16.2439 98.6519 16.1463C98.5299 16.0244 98.4324 15.8781 98.3592 15.7318C98.2617 15.4879 98.2129 15.244 98.2373 15.0002V10.0009H101.798C102.017 10.0009 102.212 9.9034 102.359 9.75708C102.505 9.61076 102.602 9.44005 102.602 9.22057V7.09895C102.602 6.87947 102.529 6.68438 102.359 6.56245C102.212 6.41613 102.017 6.34297 101.822 6.34297H98.2373V2.92886C98.2373 2.73377 98.1641 2.51429 98.0178 2.39235C97.8715 2.27042 97.7008 2.19726 97.5057 2.17288H94.7256C94.5305 2.17288 94.3355 2.24603 94.1891 2.39235C94.0428 2.53867 93.9453 2.73377 93.9453 2.92886V6.34297H92.3601C92.1651 6.34297 91.97 6.41613 91.8236 6.58683C91.7017 6.73315 91.6286 6.92824 91.6286 7.12334V9.24496C91.6286 9.44005 91.7017 9.63515 91.8236 9.78147C91.9456 9.95217 92.1407 10.0253 92.3601 10.0253H93.9453V15.9756C93.9209 16.6828 94.0672 17.3901 94.3598 18.0241C94.6281 18.5606 94.9695 19.024 95.4328 19.4141C95.8718 19.7799 96.3839 20.0482 96.9448 20.1945C97.5057 20.3652 98.091 20.4628 98.6763 20.4628C99.4322 20.4628 100.213 20.3408 100.944 20.097C101.627 19.8775 102.237 19.4873 102.724 18.9752C103.041 18.6581 103.066 18.146 102.822 17.7802L101.846 16.2195ZM116.917 6.34297H114.162C113.967 6.34297 113.796 6.41613 113.65 6.56245C113.503 6.70877 113.43 6.90386 113.43 7.12334V7.46475C113.089 7.05018 112.674 6.73315 112.186 6.51367C111.43 6.14788 110.601 5.97717 109.772 5.97717C107.992 5.97717 106.309 6.68438 105.041 7.92809C104.383 8.58653 103.871 9.36689 103.529 10.2204C103.139 11.1715 102.944 12.1957 102.968 13.22C102.944 14.2442 103.139 15.2684 103.529 16.2439C103.871 17.0974 104.407 17.8778 105.041 18.5362C106.285 19.8043 107.968 20.5115 109.748 20.5115C110.577 20.5359 111.406 20.3408 112.162 19.9994C112.65 19.7555 113.089 19.4385 113.43 19.0483V19.4141C113.43 19.6092 113.503 19.8043 113.65 19.9262C113.796 20.0726 113.967 20.1457 114.162 20.1457H116.917C117.332 20.1457 117.649 19.8287 117.649 19.4141V7.14772C117.649 6.95263 117.576 6.75754 117.454 6.61122C117.332 6.44051 117.137 6.34297 116.917 6.34297ZM113.211 14.5368C113.064 14.927 112.845 15.2684 112.552 15.5855C112.26 15.8781 111.943 16.122 111.577 16.2927C111.187 16.4634 110.772 16.5609 110.333 16.5609C109.894 16.5609 109.504 16.4634 109.114 16.2927C108.748 16.122 108.406 15.8781 108.114 15.5855C107.821 15.2928 107.602 14.927 107.48 14.5368C107.187 13.7077 107.187 12.8054 107.48 11.9763C107.626 11.5861 107.846 11.2447 108.114 10.952C108.406 10.6594 108.748 10.4155 109.114 10.2448C109.504 10.0741 109.918 9.97656 110.333 9.97656C110.748 9.97656 111.162 10.0497 111.577 10.2448C111.943 10.4155 112.26 10.635 112.552 10.9276C112.845 11.2203 113.064 11.5617 113.211 11.9519C113.528 12.781 113.528 13.7077 113.211 14.5368ZM132.037 16.0244L130.452 14.8051C130.159 14.5612 129.867 14.4881 129.623 14.5856C129.403 14.6832 129.208 14.8295 129.037 15.0002C128.696 15.4147 128.281 15.7805 127.843 16.0976C127.355 16.3658 126.843 16.5121 126.306 16.4634C125.672 16.4634 125.087 16.2927 124.575 15.9269C124.063 15.5611 123.672 15.0733 123.477 14.4637C123.331 14.0491 123.258 13.6345 123.258 13.22C123.258 12.781 123.331 12.3664 123.477 11.9275C123.624 11.5373 123.819 11.1959 124.111 10.9032C124.404 10.6106 124.721 10.3667 125.087 10.2204C125.477 10.0497 125.892 9.95217 126.331 9.95217C126.867 9.92778 127.404 10.0741 127.867 10.3424C128.33 10.635 128.72 11.0008 129.062 11.4397C129.208 11.6105 129.403 11.7568 129.623 11.8543C129.867 11.9519 130.159 11.8787 130.452 11.6348L132.037 10.4399C132.232 10.318 132.378 10.1229 132.452 9.9034C132.549 9.65953 132.525 9.39128 132.378 9.1718C131.769 8.22073 130.94 7.44036 129.94 6.87947C128.891 6.2942 127.647 5.97717 126.257 5.97717C125.282 5.97717 124.306 6.17226 123.38 6.53806C122.502 6.90386 121.721 7.41597 121.063 8.07441C120.405 8.73284 119.868 9.51322 119.502 10.3911C118.746 12.2201 118.746 14.2686 119.502 16.0976C119.868 16.9511 120.38 17.7559 121.063 18.3899C122.453 19.7555 124.306 20.4871 126.257 20.4871C127.647 20.4871 128.891 20.1701 129.94 19.5848C130.94 19.0239 131.793 18.2436 132.403 17.2681C132.525 17.0486 132.549 16.7804 132.476 16.5609C132.378 16.3658 132.232 16.1707 132.037 16.0244ZM146.718 18.8776L142.352 12.4884L146.084 7.56229C146.254 7.34282 146.327 7.02579 146.23 6.75754C146.157 6.56245 145.986 6.36735 145.523 6.36735H142.572C142.401 6.36735 142.231 6.41613 142.084 6.48929C141.889 6.58683 141.743 6.73315 141.645 6.90386L138.67 11.0739H137.963V1.2218C137.963 1.02671 137.89 0.831616 137.743 0.685297C137.597 0.538978 137.426 0.46582 137.231 0.46582H134.476C134.281 0.46582 134.085 0.538978 133.939 0.685297C133.793 0.831616 133.72 1.00232 133.72 1.2218V19.3897C133.72 19.6092 133.793 19.7799 133.939 19.9262C134.085 20.0726 134.281 20.1457 134.476 20.1457H137.231C137.426 20.1457 137.621 20.0726 137.743 19.9262C137.89 19.7799 137.963 19.5848 137.963 19.3897V14.5856H138.743L141.987 19.5604C142.182 19.9262 142.548 20.1457 142.938 20.1457H146.035C146.498 20.1457 146.693 19.9263 146.791 19.7312C146.913 19.4385 146.888 19.1215 146.718 18.8776ZM77.9965 6.34297H74.8994C74.6555 6.34297 74.4361 6.41613 74.2654 6.58683C74.119 6.73315 74.0215 6.90386 73.9727 7.09895L71.6804 15.5855H71.1195L68.6809 7.09895C68.6321 6.92824 68.5589 6.75754 68.437 6.58683C68.2907 6.41613 68.0956 6.31858 67.8761 6.31858H64.7302C64.3157 6.31858 64.0718 6.44051 63.9499 6.73315C63.8767 6.97702 63.8767 7.24527 63.9499 7.48913L67.8517 19.4385C67.9249 19.6092 67.998 19.8043 68.1443 19.9262C68.2907 20.0726 68.5101 20.1457 68.7296 20.1457H70.3879L70.2416 20.5359L69.8758 21.6333C69.7539 21.9747 69.5588 22.2674 69.2661 22.4868C68.9979 22.6819 68.6809 22.8039 68.3394 22.7795C68.0468 22.7795 67.7785 22.7063 67.5103 22.6088C67.242 22.4868 66.9982 22.3405 66.7787 22.1698C66.5836 22.0235 66.3397 21.9503 66.0715 21.9503H66.0471C65.7545 21.9747 65.4862 22.121 65.3399 22.3893L64.3644 23.8281C63.9743 24.4621 64.1937 24.8523 64.4376 25.0718C64.9741 25.5595 65.5838 25.9253 66.2666 26.1448C67.0226 26.4131 67.8029 26.535 68.5833 26.535C69.9977 26.535 71.1683 26.1448 72.0706 25.3888C72.9973 24.5597 73.7045 23.4867 74.0459 22.2674L78.5818 7.48913C78.6793 7.22088 78.7037 6.95263 78.6062 6.70877C78.5818 6.53806 78.4111 6.34297 77.9965 6.34297Z" fill="white"/>
</svg>
