<svg width="76" height="47" viewBox="0 0 76 47" fill="none" xmlns="http://www.w3.org/2000/svg">
<g clip-path="url(#clip0_637_21788)">
<path d="M17.4755 31.9492C11.3956 31.9492 6.4668 27.0309 6.4668 20.9638C6.4668 14.8968 11.3956 9.97852 17.4755 9.97852C23.5554 9.97852 28.4842 14.8968 28.4842 20.9638C28.4842 27.0309 23.5554 31.9492 17.4755 31.9492ZM17.4755 25.6693C15.0133 20.0996 13.2077 14.8967 13.2077 14.8967H9.43272C9.43272 14.8967 11.7304 21.5749 15.9982 29.9265H18.9528C23.2206 21.5749 25.5183 14.8967 25.5183 14.8967H21.7433C21.7433 14.8967 19.9377 20.0996 17.4755 25.6693ZM70.1756 24.9768H62.79C62.79 24.9768 62.9541 27.4339 66.2366 27.4339C67.8778 27.4339 69.5191 26.9421 69.5191 26.9421L69.8474 29.5625C69.8474 29.5625 68.2061 30.2176 65.9083 30.2176C62.6259 30.2176 59.6717 28.5798 59.6717 23.9941C59.6717 20.391 61.9693 18.0982 65.2519 18.0982C70.1756 18.0982 70.5039 23.0115 70.1756 24.9768ZM65.0878 20.391C62.9541 20.391 62.79 22.6839 62.79 22.6839H67.3854C67.3854 22.6839 67.2214 20.391 65.0878 20.391ZM44.7978 21.0828C44.7978 21.0828 42.9922 20.4277 41.6793 21.4103L41.6796 29.9265H38.3969V19.445C41.4877 17.3109 45.2901 18.4624 45.2901 18.4624L44.7978 21.0828ZM35.8278 24.9768H28.4422C28.4422 24.9768 28.6063 27.4339 31.8888 27.4339C33.53 27.4339 35.1712 26.9421 35.1712 26.9421L35.4995 29.5625C35.4995 29.5625 33.8583 30.2176 31.5605 30.2176C28.278 30.2176 25.3238 28.5798 25.3238 23.9941C25.3238 20.391 27.6215 18.0982 30.9041 18.0982C35.8278 18.0982 36.156 23.0115 35.8278 24.9768ZM30.7399 20.391C28.6063 20.391 28.4422 22.6839 28.4422 22.6839H33.0376C33.0376 22.6839 32.8736 20.391 30.7399 20.391ZM52.7699 25.9983C51.7496 23.522 50.9264 20.9694 50.308 18.3641L47.0258 18.3645C47.0258 18.3645 48.667 24.6876 51.4573 29.927H54.0825C56.8728 24.6876 58.514 18.3657 58.514 18.3657H55.2318C54.6133 20.9704 53.7901 23.5225 52.7699 25.9983Z" fill="#F2F4F7"/>
</g>
<defs>
<clipPath id="clip0_637_21788">
<rect width="75" height="47" fill="white" transform="translate(0.867188)"/>
</clipPath>
</defs>
</svg>
