<svg width="54" height="37" viewBox="0 0 54 37" fill="none" xmlns="http://www.w3.org/2000/svg">
<g clip-path="url(#clip0_637_21761)">
<path d="M21.8379 23.9163L23.6346 13.8359H26.442L24.7014 23.9163H21.8379Z" fill="#F2F4F7"/>
<path d="M21.8379 23.9163L24.14 13.8359H26.442L24.7014 23.9163H21.8379Z" fill="#98A2B3"/>
<path d="M34.8641 13.948C34.3026 13.724 33.4042 13.5 32.2813 13.5C29.4739 13.5 27.4525 14.9001 27.4525 16.9161C27.4525 18.4282 28.8562 19.2122 29.9792 19.7162C31.1022 20.2203 31.4391 20.5563 31.4391 21.0043C31.4391 21.6763 30.5407 22.0123 29.7546 22.0123C28.6317 22.0123 28.014 21.8443 27.0595 21.4523L26.6665 21.2843L26.2734 23.5804C26.9472 23.8604 28.1825 24.1404 29.4739 24.1404C32.4497 24.1404 34.4149 22.7404 34.4149 20.6123C34.4149 19.4362 33.685 18.5402 32.0005 17.8122C30.9899 17.3081 30.3722 17.0281 30.3722 16.5241C30.3722 16.0761 30.8776 15.6281 32.0005 15.6281C32.955 15.6281 33.6288 15.7961 34.1342 16.0201L34.4149 16.1321L34.8641 13.948Z" fill="#F2F4F7"/>
<path d="M34.8641 13.948C34.3026 13.724 33.4042 13.5 32.2813 13.5C29.4739 13.5 27.9579 14.9001 27.9579 16.9161C27.9579 18.4282 28.8562 19.2122 29.9792 19.7162C31.1022 20.2203 31.4391 20.5563 31.4391 21.0043C31.4391 21.6763 30.5407 22.0123 29.7546 22.0123C28.6317 22.0123 28.014 21.8443 27.0595 21.4523L26.6665 21.2843L26.2734 23.5804C26.9472 23.8604 28.1825 24.1404 29.4739 24.1404C32.4497 24.1404 34.4149 22.7404 34.4149 20.6123C34.4149 19.4362 33.685 18.5402 32.0005 17.8122C30.9899 17.3081 30.3722 17.0281 30.3722 16.5241C30.3722 16.0761 30.8776 15.6281 32.0005 15.6281C32.955 15.6281 33.6288 15.7961 34.1342 16.0201L34.4149 16.1321L34.8641 13.948Z" fill="#98A2B3"/>
<path d="M39.6924 13.8359C39.0187 13.8359 38.5133 13.8919 38.2326 14.564L34.0215 23.9163H37.0535L37.615 22.2363H41.2084L41.5453 23.9163H44.2404L41.8822 13.8359H39.6924ZM38.401 20.5562C38.5695 20.0522 39.524 17.5881 39.524 17.5881C39.524 17.5881 39.7486 16.9721 39.917 16.58L40.0855 17.5321C40.0855 17.5321 40.6469 20.0522 40.7592 20.6122H38.401V20.5562Z" fill="#F2F4F7"/>
<path d="M40.3662 13.8359C39.6924 13.8359 39.1871 13.8919 38.9064 14.564L34.0215 23.9163H37.0535L37.615 22.2363H41.2084L41.5453 23.9163H44.2404L41.8822 13.8359H40.3662ZM38.401 20.5562C38.6256 19.9962 39.524 17.5881 39.524 17.5881C39.524 17.5881 39.7486 16.9721 39.917 16.58L40.0855 17.5321C40.0855 17.5321 40.6469 20.0522 40.7592 20.6122H38.401V20.5562Z" fill="#98A2B3"/>
<path d="M16.672 20.8919L16.3913 19.4358C15.886 17.7557 14.2577 15.9077 12.4609 15.0116L14.9876 23.972H18.0196L22.5676 13.8916H19.5356L16.672 20.8919Z" fill="#F2F4F7"/>
<path d="M16.672 20.8919L16.3913 19.4358C15.886 17.7557 14.2577 15.9077 12.4609 15.0116L14.9876 23.972H18.0196L22.5676 13.8916H20.0971L16.672 20.8919Z" fill="#98A2B3"/>
<path d="M8.86719 13.8359L9.37252 13.9479C12.966 14.788 15.4365 16.9161 16.391 19.4362L15.3804 14.676C15.2119 14.0039 14.7066 13.8359 14.0889 13.8359H8.86719Z" fill="#FFBC00"/>
<path d="M8.86719 13.8359C12.4607 14.676 15.4365 16.8601 16.391 19.3801L15.4365 15.404C15.2681 14.732 14.7066 14.34 14.0889 14.34L8.86719 13.8359Z" fill="#F7981D"/>
<path d="M8.86719 13.8359C12.4607 14.676 15.4365 16.8601 16.391 19.3801L15.7172 17.1961C15.5488 16.524 15.3242 15.852 14.5381 15.572L8.86719 13.8359Z" fill="#ED7C00"/>
<path d="M19.4799 20.5563L17.5709 18.6522L16.6725 20.7803L16.4479 19.3802C15.9426 17.7002 14.3143 15.8521 12.5176 14.9561L15.0442 23.9164H18.0762L19.4799 20.5563ZM24.7017 23.9164L22.2873 21.4523L21.8381 23.9164H24.7017ZM31.1587 20.4443C31.3833 20.6683 31.4956 20.8363 31.4394 21.0603C31.4394 21.7323 30.5411 22.0683 29.755 22.0683C28.632 22.0683 28.0144 21.9003 27.0599 21.5083L26.6669 21.3403L26.2738 23.6364C26.9476 23.9164 28.1829 24.1964 29.4743 24.1964C31.271 24.1964 32.7308 23.6924 33.5731 22.7964L31.1587 20.4443ZM34.4153 23.9164H37.0542L37.6157 22.2363H41.2092L41.5461 23.9164H44.2412L43.2867 19.8282L39.9178 16.5801L40.0862 17.4762C40.0862 17.4762 40.6477 19.9962 40.76 20.5563H38.4018C38.6264 19.9962 39.5248 17.5882 39.5248 17.5882C39.5248 17.5882 39.7493 16.9721 39.9178 16.5801" fill="#475467"/>
</g>
<defs>
<clipPath id="clip0_637_21761">
<rect x="0.867188" y="0.5" width="53" height="36" rx="1" fill="white"/>
</clipPath>
</defs>
</svg>
